# xmcd
#
# Track frame offsets:
#	150
#	21565
#	44252
#	62900
#	86041
#	105450
#	120447
#	141675
#	181264
#	208840
#	222629
#	236416
#	262742
#
# Disc length: 3895 seconds
#
# Revision: 2
# Processed by: cddbd v1.5.2PL0 Copyright (c) Steve Scherf et al.
# Submitted via: EZCDAudioConverter 1.3.4.1
#
DISCID=c30f350d
DTITLE=Marianne Faithfull - Broken English 2/2
DYEAR=1979
DGENRE=
TTITLE0=Broken English]
TTITLE1=Witches' Song
TTITLE2=Brain Drain
TTITLE3=Guilt
TTITLE4=The Ballad Of Lucy Jordan
TTITLE5=What's The Hurry
TTITLE6=Working Class Hero
TTITLE7=Why'd Ya Do It
TTITLE8=Sister Morphine [12'' Version]
TTITLE9=Broken English [7'' Single]
TTITLE10=Broken English [7'' Remix]
TTITLE11=Broken English [Long Version]
TTITLE12=Why'd Ya Do It [12'' Remix]
EXTD=
EXTT0=
EXTT1=
EXTT2=
EXTT3=
EXTT4=
EXTT5=
EXTT6=
EXTT7=
EXTT8=
EXTT9=
EXTT10=
EXTT11=
EXTT12=
PLAYORDER=
